<?xml version="1.0" encoding="utf-8"?>
<!DOCTYPE svg PUBLIC "-//W3C//DTD SVG 1.1//EN" "http://www.w3.org/Graphics/SVG/1.1/DTD/svg11.dtd">
<svg version="1.1" id="Layer_1" xmlns="http://www.w3.org/2000/svg" xmlns:xlink="http://www.w3.org/1999/xlink" x="0px" y="0px"
width="2320px" height="2320px" viewBox="0 0 2320 2320" enable-background="new 0 0 2320 2320" xml:space="preserve">
<rect x="0" y="0" width="2320" height="2320" fill="rgb(255,255,255)" /><g transform="translate(160,160)"><g transform="translate(640,0) scale(0.8,0.8)"><g transform="" style="fill: rgb(5, 19, 103);">
<g>
	<path d="M100,0v100H0V40.625L100,0z"/>
</g>
</g></g><g transform="translate(1120,0) scale(0.8,0.8)"><g transform="" style="fill: rgb(5, 19, 103);">
<g>
	<path d="M95,64.062c0,8.556-3.019,15.851-9.053,21.885S72.618,95,64.062,95H35.938c-8.554,0-15.85-3.019-21.884-9.053
		S5,72.618,5,64.062V35.938c0-8.554,3.018-15.85,9.053-21.884S27.383,5,35.938,5h28.125c8.556,0,15.851,3.018,21.885,9.053
		S95,27.383,95,35.938V64.062z"/>
</g>
</g></g><g transform="translate(640,80) scale(0.8,0.8)"><g transform="" style="fill: rgb(5, 19, 103);">
<rect width="100" height="100"/>
</g></g><g transform="translate(720,80) scale(0.8,0.8)"><g transform="" style="fill: rgb(5, 19, 103);">
<g>
	<path d="M100,100H0V0h59.375L100,100z"/>
</g>
</g></g><g transform="translate(960,80) scale(0.8,0.8)"><g transform="" style="fill: rgb(5, 19, 103);">
<g>
	<path d="M100,0v100H0V40.625L100,0z"/>
</g>
</g></g><g transform="translate(1280,80) scale(0.8,0.8)"><g transform="" style="fill: rgb(5, 19, 103);">
<g>
	<path d="M95,64.062c0,8.556-3.019,15.851-9.053,21.885S72.618,95,64.062,95H35.938c-8.554,0-15.85-3.019-21.884-9.053
		S5,72.618,5,64.062V35.938c0-8.554,3.018-15.85,9.053-21.884S27.383,5,35.938,5h28.125c8.556,0,15.851,3.018,21.885,9.053
		S95,27.383,95,35.938V64.062z"/>
</g>
</g></g><g transform="translate(640,160) scale(0.8,0.8)"><g transform="" style="fill: rgb(5, 19, 103);">
<g>
	<path d="M0,100V0h100v59.375L0,100z"/>
</g>
</g></g><g transform="translate(800,160) scale(0.8,0.8)"><g transform="" style="fill: rgb(5, 19, 103);">
<g>
	<path d="M100,34.375V0H34.375C24.87,0,16.764,3.353,10.059,10.059S0,24.87,0,34.375V100h100V34.375z"/>
</g>
</g></g><g transform="translate(880,160) scale(0.8,0.8)"><g transform="" style="fill: rgb(5, 19, 103);">
<rect width="100" height="100"/>
</g></g><g transform="translate(960,160) scale(0.8,0.8)"><g transform="" style="fill: rgb(5, 19, 103);">
<rect width="100" height="100"/>
</g></g><g transform="translate(1040,160) scale(0.8,0.8)"><g transform="" style="fill: rgb(5, 19, 103);">
<g>
	<path d="M100,34.375c0-9.505-3.354-17.611-10.059-24.316S75.131,0,65.625,0H0v100h100V34.375z"/>
</g>
</g></g><g transform="translate(720,240) scale(0.8,0.8)"><g transform="" style="fill: rgb(5, 19, 103);">
<g>
	<path d="M0,0h100v100H40.625L0,0z"/>
</g>
</g></g><g transform="translate(800,240) scale(0.8,0.8)"><g transform="" style="fill: rgb(5, 19, 103);">
<rect width="100" height="100"/>
</g></g><g transform="translate(1040,240) scale(0.8,0.8)"><g transform="" style="fill: rgb(5, 19, 103);">
<rect width="100" height="100"/>
</g></g><g transform="translate(1120,240) scale(0.8,0.8)"><g transform="" style="fill: rgb(5, 19, 103);">
<rect width="100" height="100"/>
</g></g><g transform="translate(1200,240) scale(0.8,0.8)"><g transform="" style="fill: rgb(5, 19, 103);">
<rect width="100" height="100"/>
</g></g><g transform="translate(1280,240) scale(0.8,0.8)"><g transform="" style="fill: rgb(5, 19, 103);">
<g>
	<path d="M100,34.375c0-9.505-3.354-17.611-10.059-24.316S75.131,0,65.625,0H0v100h100V34.375z"/>
</g>
</g></g><g transform="translate(640,320) scale(0.8,0.8)"><g transform="" style="fill: rgb(5, 19, 103);">
<g>
	<path d="M95,64.062c0,8.556-3.019,15.851-9.053,21.885S72.618,95,64.062,95H35.938c-8.554,0-15.85-3.019-21.884-9.053
		S5,72.618,5,64.062V35.938c0-8.554,3.018-15.85,9.053-21.884S27.383,5,35.938,5h28.125c8.556,0,15.851,3.018,21.885,9.053
		S95,27.383,95,35.938V64.062z"/>
</g>
</g></g><g transform="translate(800,320) scale(0.8,0.8)"><g transform="" style="fill: rgb(5, 19, 103);">
<rect width="100" height="100"/>
</g></g><g transform="translate(1040,320) scale(0.8,0.8)"><g transform="" style="fill: rgb(5, 19, 103);">
<rect width="100" height="100"/>
</g></g><g transform="translate(1120,320) scale(0.8,0.8)"><g transform="" style="fill: rgb(5, 19, 103);">
<rect width="100" height="100"/>
</g></g><g transform="translate(1280,320) scale(0.8,0.8)"><g transform="" style="fill: rgb(5, 19, 103);">
<g>
	<path d="M0,100V0h100v59.375L0,100z"/>
</g>
</g></g><g transform="translate(720,400) scale(0.8,0.8)"><g transform="" style="fill: rgb(5, 19, 103);">
<g>
	<path d="M0,0h100v100H40.625L0,0z"/>
</g>
</g></g><g transform="translate(800,400) scale(0.8,0.8)"><g transform="" style="fill: rgb(5, 19, 103);">
<rect width="100" height="100"/>
</g></g><g transform="translate(880,400) scale(0.8,0.8)"><g transform="" style="fill: rgb(5, 19, 103);">
<g>
	<path d="M100,100H0V0h59.375L100,100z"/>
</g>
</g></g><g transform="translate(1040,400) scale(0.8,0.8)"><g transform="" style="fill: rgb(5, 19, 103);">
<g>
	<path d="M100,0H0v65.625c0,9.506,3.353,17.611,10.059,24.316S24.87,100,34.375,100H100V0z"/>
</g>
</g></g><g transform="translate(1120,400) scale(0.8,0.8)"><g transform="" style="fill: rgb(5, 19, 103);">
<rect width="100" height="100"/>
</g></g><g transform="translate(640,480) scale(0.8,0.8)"><g transform="" style="fill: rgb(5, 19, 103);">
<g>
	<path d="M95,64.062c0,8.556-3.019,15.851-9.053,21.885S72.618,95,64.062,95H35.938c-8.554,0-15.85-3.019-21.884-9.053
		S5,72.618,5,64.062V35.938c0-8.554,3.018-15.85,9.053-21.884S27.383,5,35.938,5h28.125c8.556,0,15.851,3.018,21.885,9.053
		S95,27.383,95,35.938V64.062z"/>
</g>
</g></g><g transform="translate(800,480) scale(0.8,0.8)"><g transform="" style="fill: rgb(5, 19, 103);">
<rect width="100" height="100"/>
</g></g><g transform="translate(960,480) scale(0.8,0.8)"><g transform="" style="fill: rgb(5, 19, 103);">
<g>
	<path d="M95,64.062c0,8.556-3.019,15.851-9.053,21.885S72.618,95,64.062,95H35.938c-8.554,0-15.85-3.019-21.884-9.053
		S5,72.618,5,64.062V35.938c0-8.554,3.018-15.85,9.053-21.884S27.383,5,35.938,5h28.125c8.556,0,15.851,3.018,21.885,9.053
		S95,27.383,95,35.938V64.062z"/>
</g>
</g></g><g transform="translate(1120,480) scale(0.8,0.8)"><g transform="" style="fill: rgb(5, 19, 103);">
<rect width="100" height="100"/>
</g></g><g transform="translate(1280,480) scale(0.8,0.8)"><g transform="" style="fill: rgb(5, 19, 103);">
<g>
	<path d="M95,64.062c0,8.556-3.019,15.851-9.053,21.885S72.618,95,64.062,95H35.938c-8.554,0-15.85-3.019-21.884-9.053
		S5,72.618,5,64.062V35.938c0-8.554,3.018-15.85,9.053-21.884S27.383,5,35.938,5h28.125c8.556,0,15.851,3.018,21.885,9.053
		S95,27.383,95,35.938V64.062z"/>
</g>
</g></g><g transform="translate(720,560) scale(0.8,0.8)"><g transform="" style="fill: rgb(5, 19, 103);">
<g>
	<path d="M100,34.375V0H34.375C24.87,0,16.764,3.353,10.059,10.059S0,24.87,0,34.375V100h100V34.375z"/>
</g>
</g></g><g transform="translate(800,560) scale(0.8,0.8)"><g transform="" style="fill: rgb(5, 19, 103);">
<rect width="100" height="100"/>
</g></g><g transform="translate(1040,560) scale(0.8,0.8)"><g transform="" style="fill: rgb(5, 19, 103);">
<g>
	<path d="M0,0h100v100H40.625L0,0z"/>
</g>
</g></g><g transform="translate(1120,560) scale(0.8,0.8)"><g transform="" style="fill: rgb(5, 19, 103);">
<rect width="100" height="100"/>
</g></g><g transform="translate(1200,560) scale(0.8,0.8)"><g transform="" style="fill: rgb(5, 19, 103);">
<g>
	<path d="M100,34.375c0-9.505-3.354-17.611-10.059-24.316S75.131,0,65.625,0H0v100h100V34.375z"/>
</g>
</g></g><g transform="translate(0,640) scale(0.8,0.8)"><g transform="" style="fill: rgb(5, 19, 103);">
<g>
	<path d="M100,0v100H0V40.625L100,0z"/>
</g>
</g></g><g transform="translate(240,640) scale(0.8,0.8)"><g transform="" style="fill: rgb(5, 19, 103);">
<g>
	<path d="M0,0h100v100H40.625L0,0z"/>
</g>
</g></g><g transform="translate(320,640) scale(0.8,0.8)"><g transform="" style="fill: rgb(5, 19, 103);">
<rect width="100" height="100"/>
</g></g><g transform="translate(400,640) scale(0.8,0.8)"><g transform="" style="fill: rgb(5, 19, 103);">
<rect width="100" height="100"/>
</g></g><g transform="translate(480,640) scale(0.8,0.8)"><g transform="" style="fill: rgb(5, 19, 103);">
<rect width="100" height="100"/>
</g></g><g transform="translate(560,640) scale(0.8,0.8)"><g transform="" style="fill: rgb(5, 19, 103);">
<rect width="100" height="100"/>
</g></g><g transform="translate(640,640) scale(0.8,0.8)"><g transform="" style="fill: rgb(5, 19, 103);">
<rect width="100" height="100"/>
</g></g><g transform="translate(720,640) scale(0.8,0.8)"><g transform="" style="fill: rgb(5, 19, 103);">
<rect width="100" height="100"/>
</g></g><g transform="translate(800,640) scale(0.8,0.8)"><g transform="" style="fill: rgb(5, 19, 103);">
<g>
	<path d="M100,0H0v100h65.625c9.506,0,17.611-3.354,24.316-10.059S100,75.131,100,65.625V0z"/>
</g>
</g></g><g transform="translate(960,640) scale(0.8,0.8)"><g transform="" style="fill: rgb(5, 19, 103);">
<g>
	<path d="M95,64.062c0,8.556-3.019,15.851-9.053,21.885S72.618,95,64.062,95H35.938c-8.554,0-15.85-3.019-21.884-9.053
		S5,72.618,5,64.062V35.938c0-8.554,3.018-15.85,9.053-21.884S27.383,5,35.938,5h28.125c8.556,0,15.851,3.018,21.885,9.053
		S95,27.383,95,35.938V64.062z"/>
</g>
</g></g><g transform="translate(1120,640) scale(0.8,0.8)"><g transform="" style="fill: rgb(5, 19, 103);">
<rect width="100" height="100"/>
</g></g><g transform="translate(1200,640) scale(0.8,0.8)"><g transform="" style="fill: rgb(5, 19, 103);">
<rect width="100" height="100"/>
</g></g><g transform="translate(1360,640) scale(0.8,0.8)"><g transform="" style="fill: rgb(5, 19, 103);">
<g>
	<path d="M100,0v100H0V40.625L100,0z"/>
</g>
</g></g><g transform="translate(1600,640) scale(0.8,0.8)"><g transform="" style="fill: rgb(5, 19, 103);">
<g>
	<path d="M100,0v100H0V40.625L100,0z"/>
</g>
</g></g><g transform="translate(1760,640) scale(0.8,0.8)"><g transform="" style="fill: rgb(5, 19, 103);">
<g>
	<path d="M100,34.375V0H34.375C24.87,0,16.764,3.353,10.059,10.059S0,24.87,0,34.375V100h100V34.375z"/>
</g>
</g></g><g transform="translate(1840,640) scale(0.8,0.8)"><g transform="" style="fill: rgb(5, 19, 103);">
<rect width="100" height="100"/>
</g></g><g transform="translate(1920,640) scale(0.8,0.8)"><g transform="" style="fill: rgb(5, 19, 103);">
<g>
	<path d="M100,100H0V0h59.375L100,100z"/>
</g>
</g></g><g transform="translate(0,720) scale(0.8,0.8)"><g transform="" style="fill: rgb(5, 19, 103);">
<rect width="100" height="100"/>
</g></g><g transform="translate(80,720) scale(0.8,0.8)"><g transform="" style="fill: rgb(5, 19, 103);">
<rect width="100" height="100"/>
</g></g><g transform="translate(160,720) scale(0.8,0.8)"><g transform="" style="fill: rgb(5, 19, 103);">
<g>
	<path d="M100,34.375c0-9.505-3.354-17.611-10.059-24.316S75.131,0,65.625,0H0v100h100V34.375z"/>
</g>
</g></g><g transform="translate(320,720) scale(0.8,0.8)"><g transform="" style="fill: rgb(5, 19, 103);">
<rect width="100" height="100"/>
</g></g><g transform="translate(560,720) scale(0.8,0.8)"><g transform="" style="fill: rgb(5, 19, 103);">
<g>
	<path d="M0,100V0h100v59.375L0,100z"/>
</g>
</g></g><g transform="translate(880,720) scale(0.8,0.8)"><g transform="" style="fill: rgb(5, 19, 103);">
<g>
	<path d="M100,0v100H0V40.625L100,0z"/>
</g>
</g></g><g transform="translate(1120,720) scale(0.8,0.8)"><g transform="" style="fill: rgb(5, 19, 103);">
<rect width="100" height="100"/>
</g></g><g transform="translate(1200,720) scale(0.8,0.8)"><g transform="" style="fill: rgb(5, 19, 103);">
<rect width="100" height="100"/>
</g></g><g transform="translate(1360,720) scale(0.8,0.8)"><g transform="" style="fill: rgb(5, 19, 103);">
<g>
	<path d="M0,100V0h100v59.375L0,100z"/>
</g>
</g></g><g transform="translate(1520,720) scale(0.8,0.8)"><g transform="" style="fill: rgb(5, 19, 103);">
<g>
	<path d="M100,34.375V0H34.375C24.87,0,16.764,3.353,10.059,10.059S0,24.87,0,34.375V100h100V34.375z"/>
</g>
</g></g><g transform="translate(1600,720) scale(0.8,0.8)"><g transform="" style="fill: rgb(5, 19, 103);">
<rect width="100" height="100"/>
</g></g><g transform="translate(1680,720) scale(0.8,0.8)"><g transform="" style="fill: rgb(5, 19, 103);">
<rect width="100" height="100"/>
</g></g><g transform="translate(1760,720) scale(0.8,0.8)"><g transform="" style="fill: rgb(5, 19, 103);">
<rect width="100" height="100"/>
</g></g><g transform="translate(1840,720) scale(0.8,0.8)"><g transform="" style="fill: rgb(5, 19, 103);">
<g>
	<path d="M100,0H0v100h65.625c9.506,0,17.611-3.354,24.316-10.059S100,75.131,100,65.625V0z"/>
</g>
</g></g><g transform="translate(0,800) scale(0.8,0.8)"><g transform="" style="fill: rgb(5, 19, 103);">
<rect width="100" height="100"/>
</g></g><g transform="translate(80,800) scale(0.8,0.8)"><g transform="" style="fill: rgb(5, 19, 103);">
<rect width="100" height="100"/>
</g></g><g transform="translate(160,800) scale(0.8,0.8)"><g transform="" style="fill: rgb(5, 19, 103);">
<rect width="100" height="100"/>
</g></g><g transform="translate(240,800) scale(0.8,0.8)"><g transform="" style="fill: rgb(5, 19, 103);">
<rect width="100" height="100"/>
</g></g><g transform="translate(320,800) scale(0.8,0.8)"><g transform="" style="fill: rgb(5, 19, 103);">
<rect width="100" height="100"/>
</g></g><g transform="translate(400,800) scale(0.8,0.8)"><g transform="" style="fill: rgb(5, 19, 103);">
<rect width="100" height="100"/>
</g></g><g transform="translate(480,800) scale(0.8,0.8)"><g transform="" style="fill: rgb(5, 19, 103);">
<g>
	<path d="M100,100H0V0h59.375L100,100z"/>
</g>
</g></g><g transform="translate(640,800) scale(0.8,0.8)"><g transform="" style="fill: rgb(5, 19, 103);">
<g>
	<path d="M100,34.375V0H34.375C24.87,0,16.764,3.353,10.059,10.059S0,24.87,0,34.375V100h100V34.375z"/>
</g>
</g></g><g transform="translate(720,800) scale(0.8,0.8)"><g transform="" style="fill: rgb(5, 19, 103);">
<rect width="100" height="100"/>
</g></g><g transform="translate(800,800) scale(0.8,0.8)"><g transform="" style="fill: rgb(5, 19, 103);">
<rect width="100" height="100"/>
</g></g><g transform="translate(880,800) scale(0.8,0.8)"><g transform="" style="fill: rgb(5, 19, 103);">
<rect width="100" height="100"/>
</g></g><g transform="translate(960,800) scale(0.8,0.8)"><g transform="" style="fill: rgb(5, 19, 103);">
<rect width="100" height="100"/>
</g></g><g transform="translate(1040,800) scale(0.8,0.8)"><g transform="" style="fill: rgb(5, 19, 103);">
<rect width="100" height="100"/>
</g></g><g transform="translate(1120,800) scale(0.8,0.8)"><g transform="" style="fill: rgb(5, 19, 103);">
<rect width="100" height="100"/>
</g></g><g transform="translate(1200,800) scale(0.8,0.8)"><g transform="" style="fill: rgb(5, 19, 103);">
<rect width="100" height="100"/>
</g></g><g transform="translate(1280,800) scale(0.8,0.8)"><g transform="" style="fill: rgb(5, 19, 103);">
<g>
	<path d="M100,34.375c0-9.505-3.354-17.611-10.059-24.316S75.131,0,65.625,0H0v100h100V34.375z"/>
</g>
</g></g><g transform="translate(1440,800) scale(0.8,0.8)"><g transform="" style="fill: rgb(5, 19, 103);">
<g>
	<path d="M0,0h100v100H40.625L0,0z"/>
</g>
</g></g><g transform="translate(1520,800) scale(0.8,0.8)"><g transform="" style="fill: rgb(5, 19, 103);">
<rect width="100" height="100"/>
</g></g><g transform="translate(1680,800) scale(0.8,0.8)"><g transform="" style="fill: rgb(5, 19, 103);">
<rect width="100" height="100"/>
</g></g><g transform="translate(1920,800) scale(0.8,0.8)"><g transform="" style="fill: rgb(5, 19, 103);">
<g>
	<path d="M100,0v100H0V40.625L100,0z"/>
</g>
</g></g><g transform="translate(0,880) scale(0.8,0.8)"><g transform="" style="fill: rgb(5, 19, 103);">
<g>
	<path d="M0,100V0h100v59.375L0,100z"/>
</g>
</g></g><g transform="translate(320,880) scale(0.8,0.8)"><g transform="" style="fill: rgb(5, 19, 103);">
<g>
	<path d="M0,100V0h100v59.375L0,100z"/>
</g>
</g></g><g transform="translate(640,880) scale(0.8,0.8)"><g transform="" style="fill: rgb(5, 19, 103);">
<g>
	<path d="M0,100V0h100v59.375L0,100z"/>
</g>
</g></g><g transform="translate(880,880) scale(0.8,0.8)"><g transform="" style="fill: rgb(5, 19, 103);">
<rect width="100" height="100"/>
</g></g><g transform="translate(1120,880) scale(0.8,0.8)"><g transform="" style="fill: rgb(5, 19, 103);">
<g>
	<path d="M100,0H0v65.625c0,9.506,3.353,17.611,10.059,24.316S24.87,100,34.375,100H100V0z"/>
</g>
</g></g><g transform="translate(1200,880) scale(0.8,0.8)"><g transform="" style="fill: rgb(5, 19, 103);">
<rect width="100" height="100"/>
</g></g><g transform="translate(1280,880) scale(0.8,0.8)"><g transform="" style="fill: rgb(5, 19, 103);">
<rect width="100" height="100"/>
</g></g><g transform="translate(1520,880) scale(0.8,0.8)"><g transform="" style="fill: rgb(5, 19, 103);">
<g>
	<path d="M0,100V0h100v59.375L0,100z"/>
</g>
</g></g><g transform="translate(1680,880) scale(0.8,0.8)"><g transform="" style="fill: rgb(5, 19, 103);">
<g>
	<path d="M100,0H0v65.625c0,9.506,3.353,17.611,10.059,24.316S24.87,100,34.375,100H100V0z"/>
</g>
</g></g><g transform="translate(1760,880) scale(0.8,0.8)"><g transform="" style="fill: rgb(5, 19, 103);">
<rect width="100" height="100"/>
</g></g><g transform="translate(1840,880) scale(0.8,0.8)"><g transform="" style="fill: rgb(5, 19, 103);">
<rect width="100" height="100"/>
</g></g><g transform="translate(1920,880) scale(0.8,0.8)"><g transform="" style="fill: rgb(5, 19, 103);">
<rect width="100" height="100"/>
</g></g><g transform="translate(160,960) scale(0.8,0.8)"><g transform="" style="fill: rgb(5, 19, 103);">
<g>
	<path d="M0,0h100v100H40.625L0,0z"/>
</g>
</g></g><g transform="translate(240,960) scale(0.8,0.8)"><g transform="" style="fill: rgb(5, 19, 103);">
<g>
	<path d="M100,100H0V0h59.375L100,100z"/>
</g>
</g></g><g transform="translate(400,960) scale(0.8,0.8)"><g transform="" style="fill: rgb(5, 19, 103);">
<g>
	<path d="M100,34.375V0H34.375C24.87,0,16.764,3.353,10.059,10.059S0,24.87,0,34.375V100h100V34.375z"/>
</g>
</g></g><g transform="translate(480,960) scale(0.8,0.8)"><g transform="" style="fill: rgb(5, 19, 103);">
<g>
	<path d="M100,100H0V0h59.375L100,100z"/>
</g>
</g></g><g transform="translate(880,960) scale(0.8,0.8)"><g transform="" style="fill: rgb(5, 19, 103);">
<g>
	<path d="M100,0H0v65.625c0,9.506,3.353,17.611,10.059,24.316S24.87,100,34.375,100H100V0z"/>
</g>
</g></g><g transform="translate(960,960) scale(0.8,0.8)"><g transform="" style="fill: rgb(5, 19, 103);">
<g>
	<path d="M100,34.375c0-9.505-3.354-17.611-10.059-24.316S75.131,0,65.625,0H0v100h100V34.375z"/>
</g>
</g></g><g transform="translate(1200,960) scale(0.8,0.8)"><g transform="" style="fill: rgb(5, 19, 103);">
<rect width="100" height="100"/>
</g></g><g transform="translate(1280,960) scale(0.8,0.8)"><g transform="" style="fill: rgb(5, 19, 103);">
<rect width="100" height="100"/>
</g></g><g transform="translate(1440,960) scale(0.8,0.8)"><g transform="" style="fill: rgb(5, 19, 103);">
<g>
	<path d="M95,64.062c0,8.556-3.019,15.851-9.053,21.885S72.618,95,64.062,95H35.938c-8.554,0-15.85-3.019-21.884-9.053
		S5,72.618,5,64.062V35.938c0-8.554,3.018-15.85,9.053-21.884S27.383,5,35.938,5h28.125c8.556,0,15.851,3.018,21.885,9.053
		S95,27.383,95,35.938V64.062z"/>
</g>
</g></g><g transform="translate(1920,960) scale(0.8,0.8)"><g transform="" style="fill: rgb(5, 19, 103);">
<g>
	<path d="M0,100V0h100v59.375L0,100z"/>
</g>
</g></g><g transform="translate(0,1040) scale(0.8,0.8)"><g transform="" style="fill: rgb(5, 19, 103);">
<g>
	<path d="M100,34.375V0H34.375C24.87,0,16.764,3.353,10.059,10.059S0,24.87,0,34.375V100h100V34.375z"/>
</g>
</g></g><g transform="translate(80,1040) scale(0.8,0.8)"><g transform="" style="fill: rgb(5, 19, 103);">
<g>
	<path d="M100,34.375c0-9.505-3.354-17.611-10.059-24.316S75.131,0,65.625,0H0v100h100V34.375z"/>
</g>
</g></g><g transform="translate(320,1040) scale(0.8,0.8)"><g transform="" style="fill: rgb(5, 19, 103);">
<g>
	<path d="M100,34.375V0H34.375C24.87,0,16.764,3.353,10.059,10.059S0,24.87,0,34.375V100h100V34.375z"/>
</g>
</g></g><g transform="translate(400,1040) scale(0.8,0.8)"><g transform="" style="fill: rgb(5, 19, 103);">
<rect width="100" height="100"/>
</g></g><g transform="translate(720,1040) scale(0.8,0.8)"><g transform="" style="fill: rgb(5, 19, 103);">
<g>
	<path d="M100,34.375V0H34.375C24.87,0,16.764,3.353,10.059,10.059S0,24.87,0,34.375V100h100V34.375z"/>
</g>
</g></g><g transform="translate(800,1040) scale(0.8,0.8)"><g transform="" style="fill: rgb(5, 19, 103);">
<g>
	<path d="M100,34.375c0-9.505-3.354-17.611-10.059-24.316S75.131,0,65.625,0H0v100h100V34.375z"/>
</g>
</g></g><g transform="translate(960,1040) scale(0.8,0.8)"><g transform="" style="fill: rgb(5, 19, 103);">
<g>
	<path d="M0,100V0h100v59.375L0,100z"/>
</g>
</g></g><g transform="translate(1120,1040) scale(0.8,0.8)"><g transform="" style="fill: rgb(5, 19, 103);">
<g>
	<path d="M100,34.375V0H34.375C24.87,0,16.764,3.353,10.059,10.059S0,24.87,0,34.375V100h100V34.375z"/>
</g>
</g></g><g transform="translate(1200,1040) scale(0.8,0.8)"><g transform="" style="fill: rgb(5, 19, 103);">
<rect width="100" height="100"/>
</g></g><g transform="translate(1280,1040) scale(0.8,0.8)"><g transform="" style="fill: rgb(5, 19, 103);">
<rect width="100" height="100"/>
</g></g><g transform="translate(1360,1040) scale(0.8,0.8)"><g transform="" style="fill: rgb(5, 19, 103);">
<g>
	<path d="M100,34.375c0-9.505-3.354-17.611-10.059-24.316S75.131,0,65.625,0H0v100h100V34.375z"/>
</g>
</g></g><g transform="translate(1600,1040) scale(0.8,0.8)"><g transform="" style="fill: rgb(5, 19, 103);">
<g>
	<path d="M100,0v100H0V40.625L100,0z"/>
</g>
</g></g><g transform="translate(1840,1040) scale(0.8,0.8)"><g transform="" style="fill: rgb(5, 19, 103);">
<g>
	<path d="M100,0v100H0V40.625L100,0z"/>
</g>
</g></g><g transform="translate(0,1120) scale(0.8,0.8)"><g transform="" style="fill: rgb(5, 19, 103);">
<rect width="100" height="100"/>
</g></g><g transform="translate(80,1120) scale(0.8,0.8)"><g transform="" style="fill: rgb(5, 19, 103);">
<g>
	<path d="M100,0H0v100h65.625c9.506,0,17.611-3.354,24.316-10.059S100,75.131,100,65.625V0z"/>
</g>
</g></g><g transform="translate(320,1120) scale(0.8,0.8)"><g transform="" style="fill: rgb(5, 19, 103);">
<rect width="100" height="100"/>
</g></g><g transform="translate(400,1120) scale(0.8,0.8)"><g transform="" style="fill: rgb(5, 19, 103);">
<rect width="100" height="100"/>
</g></g><g transform="translate(480,1120) scale(0.8,0.8)"><g transform="" style="fill: rgb(5, 19, 103);">
<g>
	<path d="M100,100H0V0h59.375L100,100z"/>
</g>
</g></g><g transform="translate(640,1120) scale(0.8,0.8)"><g transform="" style="fill: rgb(5, 19, 103);">
<g>
	<path d="M0,0h100v100H40.625L0,0z"/>
</g>
</g></g><g transform="translate(720,1120) scale(0.8,0.8)"><g transform="" style="fill: rgb(5, 19, 103);">
<rect width="100" height="100"/>
</g></g><g transform="translate(800,1120) scale(0.8,0.8)"><g transform="" style="fill: rgb(5, 19, 103);">
<rect width="100" height="100"/>
</g></g><g transform="translate(1120,1120) scale(0.8,0.8)"><g transform="" style="fill: rgb(5, 19, 103);">
<g>
	<path d="M100,0H0v65.625c0,9.506,3.353,17.611,10.059,24.316S24.87,100,34.375,100H100V0z"/>
</g>
</g></g><g transform="translate(1200,1120) scale(0.8,0.8)"><g transform="" style="fill: rgb(5, 19, 103);">
<g>
	<path d="M100,0H0v100h65.625c9.506,0,17.611-3.354,24.316-10.059S100,75.131,100,65.625V0z"/>
</g>
</g></g><g transform="translate(1360,1120) scale(0.8,0.8)"><g transform="" style="fill: rgb(5, 19, 103);">
<rect width="100" height="100"/>
</g></g><g transform="translate(1440,1120) scale(0.8,0.8)"><g transform="" style="fill: rgb(5, 19, 103);">
<g>
	<path d="M100,100H0V0h59.375L100,100z"/>
</g>
</g></g><g transform="translate(1600,1120) scale(0.8,0.8)"><g transform="" style="fill: rgb(5, 19, 103);">
<g>
	<path d="M100,0H0v65.625c0,9.506,3.353,17.611,10.059,24.316S24.87,100,34.375,100H100V0z"/>
</g>
</g></g><g transform="translate(1680,1120) scale(0.8,0.8)"><g transform="" style="fill: rgb(5, 19, 103);">
<rect width="100" height="100"/>
</g></g><g transform="translate(1760,1120) scale(0.8,0.8)"><g transform="" style="fill: rgb(5, 19, 103);">
<rect width="100" height="100"/>
</g></g><g transform="translate(1840,1120) scale(0.8,0.8)"><g transform="" style="fill: rgb(5, 19, 103);">
<rect width="100" height="100"/>
</g></g><g transform="translate(1920,1120) scale(0.8,0.8)"><g transform="" style="fill: rgb(5, 19, 103);">
<g>
	<path d="M100,34.375c0-9.505-3.354-17.611-10.059-24.316S75.131,0,65.625,0H0v100h100V34.375z"/>
</g>
</g></g><g transform="translate(0,1200) scale(0.8,0.8)"><g transform="" style="fill: rgb(5, 19, 103);">
<rect width="100" height="100"/>
</g></g><g transform="translate(160,1200) scale(0.8,0.8)"><g transform="" style="fill: rgb(5, 19, 103);">
<g>
	<path d="M95,64.062c0,8.556-3.019,15.851-9.053,21.885S72.618,95,64.062,95H35.938c-8.554,0-15.85-3.019-21.884-9.053
		S5,72.618,5,64.062V35.938c0-8.554,3.018-15.85,9.053-21.884S27.383,5,35.938,5h28.125c8.556,0,15.851,3.018,21.885,9.053
		S95,27.383,95,35.938V64.062z"/>
</g>
</g></g><g transform="translate(320,1200) scale(0.8,0.8)"><g transform="" style="fill: rgb(5, 19, 103);">
<g>
	<path d="M100,0H0v65.625c0,9.506,3.353,17.611,10.059,24.316S24.87,100,34.375,100H100V0z"/>
</g>
</g></g><g transform="translate(400,1200) scale(0.8,0.8)"><g transform="" style="fill: rgb(5, 19, 103);">
<rect width="100" height="100"/>
</g></g><g transform="translate(720,1200) scale(0.8,0.8)"><g transform="" style="fill: rgb(5, 19, 103);">
<g>
	<path d="M100,0H0v65.625c0,9.506,3.353,17.611,10.059,24.316S24.87,100,34.375,100H100V0z"/>
</g>
</g></g><g transform="translate(800,1200) scale(0.8,0.8)"><g transform="" style="fill: rgb(5, 19, 103);">
<rect width="100" height="100"/>
</g></g><g transform="translate(880,1200) scale(0.8,0.8)"><g transform="" style="fill: rgb(5, 19, 103);">
<g>
	<path d="M100,100H0V0h59.375L100,100z"/>
</g>
</g></g><g transform="translate(1360,1200) scale(0.8,0.8)"><g transform="" style="fill: rgb(5, 19, 103);">
<rect width="100" height="100"/>
</g></g><g transform="translate(1520,1200) scale(0.8,0.8)"><g transform="" style="fill: rgb(5, 19, 103);">
<g>
	<path d="M100,0v100H0V40.625L100,0z"/>
</g>
</g></g><g transform="translate(1680,1200) scale(0.8,0.8)"><g transform="" style="fill: rgb(5, 19, 103);">
<g>
	<path d="M100,0H0v65.625c0,9.506,3.353,17.611,10.059,24.316S24.87,100,34.375,100H100V0z"/>
</g>
</g></g><g transform="translate(1760,1200) scale(0.8,0.8)"><g transform="" style="fill: rgb(5, 19, 103);">
<rect width="100" height="100"/>
</g></g><g transform="translate(1920,1200) scale(0.8,0.8)"><g transform="" style="fill: rgb(5, 19, 103);">
<g>
	<path d="M0,100V0h100v59.375L0,100z"/>
</g>
</g></g><g transform="translate(0,1280) scale(0.8,0.8)"><g transform="" style="fill: rgb(5, 19, 103);">
<g>
	<path d="M0,100V0h100v59.375L0,100z"/>
</g>
</g></g><g transform="translate(400,1280) scale(0.8,0.8)"><g transform="" style="fill: rgb(5, 19, 103);">
<g>
	<path d="M100,0H0v65.625c0,9.506,3.353,17.611,10.059,24.316S24.87,100,34.375,100H100V0z"/>
</g>
</g></g><g transform="translate(480,1280) scale(0.8,0.8)"><g transform="" style="fill: rgb(5, 19, 103);">
<rect width="100" height="100"/>
</g></g><g transform="translate(560,1280) scale(0.8,0.8)"><g transform="" style="fill: rgb(5, 19, 103);">
<g>
	<path d="M100,100H0V0h59.375L100,100z"/>
</g>
</g></g><g transform="translate(960,1280) scale(0.8,0.8)"><g transform="" style="fill: rgb(5, 19, 103);">
<g>
	<path d="M100,34.375V0H34.375C24.87,0,16.764,3.353,10.059,10.059S0,24.87,0,34.375V100h100V34.375z"/>
</g>
</g></g><g transform="translate(1040,1280) scale(0.8,0.8)"><g transform="" style="fill: rgb(5, 19, 103);">
<g>
	<path d="M100,34.375c0-9.505-3.354-17.611-10.059-24.316S75.131,0,65.625,0H0v100h100V34.375z"/>
</g>
</g></g><g transform="translate(1200,1280) scale(0.8,0.8)"><g transform="" style="fill: rgb(5, 19, 103);">
<g>
	<path d="M100,34.375V0H34.375C24.87,0,16.764,3.353,10.059,10.059S0,24.87,0,34.375V100h100V34.375z"/>
</g>
</g></g><g transform="translate(1280,1280) scale(0.8,0.8)"><g transform="" style="fill: rgb(5, 19, 103);">
<rect width="100" height="100"/>
</g></g><g transform="translate(1360,1280) scale(0.8,0.8)"><g transform="" style="fill: rgb(5, 19, 103);">
<rect width="100" height="100"/>
</g></g><g transform="translate(1440,1280) scale(0.8,0.8)"><g transform="" style="fill: rgb(5, 19, 103);">
<rect width="100" height="100"/>
</g></g><g transform="translate(1520,1280) scale(0.8,0.8)"><g transform="" style="fill: rgb(5, 19, 103);">
<rect width="100" height="100"/>
</g></g><g transform="translate(1600,1280) scale(0.8,0.8)"><g transform="" style="fill: rgb(5, 19, 103);">
<g>
	<path d="M100,34.375c0-9.505-3.354-17.611-10.059-24.316S75.131,0,65.625,0H0v100h100V34.375z"/>
</g>
</g></g><g transform="translate(1760,1280) scale(0.8,0.8)"><g transform="" style="fill: rgb(5, 19, 103);">
<rect width="100" height="100"/>
</g></g><g transform="translate(1840,1280) scale(0.8,0.8)"><g transform="" style="fill: rgb(5, 19, 103);">
<g>
	<path d="M100,34.375c0-9.505-3.354-17.611-10.059-24.316S75.131,0,65.625,0H0v100h100V34.375z"/>
</g>
</g></g><g transform="translate(640,1360) scale(0.8,0.8)"><g transform="" style="fill: rgb(5, 19, 103);">
<g>
	<path d="M100,0v100H0V40.625L100,0z"/>
</g>
</g></g><g transform="translate(800,1360) scale(0.8,0.8)"><g transform="" style="fill: rgb(5, 19, 103);">
<g>
	<path d="M95,64.062c0,8.556-3.019,15.851-9.053,21.885S72.618,95,64.062,95H35.938c-8.554,0-15.85-3.019-21.884-9.053
		S5,72.618,5,64.062V35.938c0-8.554,3.018-15.85,9.053-21.884S27.383,5,35.938,5h28.125c8.556,0,15.851,3.018,21.885,9.053
		S95,27.383,95,35.938V64.062z"/>
</g>
</g></g><g transform="translate(960,1360) scale(0.8,0.8)"><g transform="" style="fill: rgb(5, 19, 103);">
<rect width="100" height="100"/>
</g></g><g transform="translate(1040,1360) scale(0.8,0.8)"><g transform="" style="fill: rgb(5, 19, 103);">
<rect width="100" height="100"/>
</g></g><g transform="translate(1200,1360) scale(0.8,0.8)"><g transform="" style="fill: rgb(5, 19, 103);">
<g>
	<path d="M100,0H0v65.625c0,9.506,3.353,17.611,10.059,24.316S24.87,100,34.375,100H100V0z"/>
</g>
</g></g><g transform="translate(1280,1360) scale(0.8,0.8)"><g transform="" style="fill: rgb(5, 19, 103);">
<rect width="100" height="100"/>
</g></g><g transform="translate(1600,1360) scale(0.8,0.8)"><g transform="" style="fill: rgb(5, 19, 103);">
<rect width="100" height="100"/>
</g></g><g transform="translate(1760,1360) scale(0.8,0.8)"><g transform="" style="fill: rgb(5, 19, 103);">
<g>
	<path d="M100,0H0v65.625c0,9.506,3.353,17.611,10.059,24.316S24.87,100,34.375,100H100V0z"/>
</g>
</g></g><g transform="translate(1840,1360) scale(0.8,0.8)"><g transform="" style="fill: rgb(5, 19, 103);">
<g>
	<path d="M100,0H0v100h65.625c9.506,0,17.611-3.354,24.316-10.059S100,75.131,100,65.625V0z"/>
</g>
</g></g><g transform="translate(640,1440) scale(0.8,0.8)"><g transform="" style="fill: rgb(5, 19, 103);">
<rect width="100" height="100"/>
</g></g><g transform="translate(720,1440) scale(0.8,0.8)"><g transform="" style="fill: rgb(5, 19, 103);">
<g>
	<path d="M100,34.375c0-9.505-3.354-17.611-10.059-24.316S75.131,0,65.625,0H0v100h100V34.375z"/>
</g>
</g></g><g transform="translate(880,1440) scale(0.8,0.8)"><g transform="" style="fill: rgb(5, 19, 103);">
<g>
	<path d="M100,34.375V0H34.375C24.87,0,16.764,3.353,10.059,10.059S0,24.87,0,34.375V100h100V34.375z"/>
</g>
</g></g><g transform="translate(960,1440) scale(0.8,0.8)"><g transform="" style="fill: rgb(5, 19, 103);">
<rect width="100" height="100"/>
</g></g><g transform="translate(1040,1440) scale(0.8,0.8)"><g transform="" style="fill: rgb(5, 19, 103);">
<rect width="100" height="100"/>
</g></g><g transform="translate(1280,1440) scale(0.8,0.8)"><g transform="" style="fill: rgb(5, 19, 103);">
<rect width="100" height="100"/>
</g></g><g transform="translate(1440,1440) scale(0.8,0.8)"><g transform="" style="fill: rgb(5, 19, 103);">
<g>
	<path d="M95,64.062c0,8.556-3.019,15.851-9.053,21.885S72.618,95,64.062,95H35.938c-8.554,0-15.85-3.019-21.884-9.053
		S5,72.618,5,64.062V35.938c0-8.554,3.018-15.85,9.053-21.884S27.383,5,35.938,5h28.125c8.556,0,15.851,3.018,21.885,9.053
		S95,27.383,95,35.938V64.062z"/>
</g>
</g></g><g transform="translate(1600,1440) scale(0.8,0.8)"><g transform="" style="fill: rgb(5, 19, 103);">
<rect width="100" height="100"/>
</g></g><g transform="translate(1920,1440) scale(0.8,0.8)"><g transform="" style="fill: rgb(5, 19, 103);">
<g>
	<path d="M95,64.062c0,8.556-3.019,15.851-9.053,21.885S72.618,95,64.062,95H35.938c-8.554,0-15.85-3.019-21.884-9.053
		S5,72.618,5,64.062V35.938c0-8.554,3.018-15.85,9.053-21.884S27.383,5,35.938,5h28.125c8.556,0,15.851,3.018,21.885,9.053
		S95,27.383,95,35.938V64.062z"/>
</g>
</g></g><g transform="translate(640,1520) scale(0.8,0.8)"><g transform="" style="fill: rgb(5, 19, 103);">
<rect width="100" height="100"/>
</g></g><g transform="translate(720,1520) scale(0.8,0.8)"><g transform="" style="fill: rgb(5, 19, 103);">
<g>
	<path d="M100,0H0v100h65.625c9.506,0,17.611-3.354,24.316-10.059S100,75.131,100,65.625V0z"/>
</g>
</g></g><g transform="translate(880,1520) scale(0.8,0.8)"><g transform="" style="fill: rgb(5, 19, 103);">
<g>
	<path d="M100,0H0v65.625c0,9.506,3.353,17.611,10.059,24.316S24.87,100,34.375,100H100V0z"/>
</g>
</g></g><g transform="translate(960,1520) scale(0.8,0.8)"><g transform="" style="fill: rgb(5, 19, 103);">
<rect width="100" height="100"/>
</g></g><g transform="translate(1040,1520) scale(0.8,0.8)"><g transform="" style="fill: rgb(5, 19, 103);">
<g>
	<path d="M100,0H0v100h65.625c9.506,0,17.611-3.354,24.316-10.059S100,75.131,100,65.625V0z"/>
</g>
</g></g><g transform="translate(1200,1520) scale(0.8,0.8)"><g transform="" style="fill: rgb(5, 19, 103);">
<g>
	<path d="M100,34.375V0H34.375C24.87,0,16.764,3.353,10.059,10.059S0,24.87,0,34.375V100h100V34.375z"/>
</g>
</g></g><g transform="translate(1280,1520) scale(0.8,0.8)"><g transform="" style="fill: rgb(5, 19, 103);">
<rect width="100" height="100"/>
</g></g><g transform="translate(1600,1520) scale(0.8,0.8)"><g transform="" style="fill: rgb(5, 19, 103);">
<rect width="100" height="100"/>
</g></g><g transform="translate(640,1600) scale(0.8,0.8)"><g transform="" style="fill: rgb(5, 19, 103);">
<rect width="100" height="100"/>
</g></g><g transform="translate(1200,1600) scale(0.8,0.8)"><g transform="" style="fill: rgb(5, 19, 103);">
<g>
	<path d="M100,0H0v65.625c0,9.506,3.353,17.611,10.059,24.316S24.87,100,34.375,100H100V0z"/>
</g>
</g></g><g transform="translate(1280,1600) scale(0.8,0.8)"><g transform="" style="fill: rgb(5, 19, 103);">
<rect width="100" height="100"/>
</g></g><g transform="translate(1360,1600) scale(0.8,0.8)"><g transform="" style="fill: rgb(5, 19, 103);">
<rect width="100" height="100"/>
</g></g><g transform="translate(1440,1600) scale(0.8,0.8)"><g transform="" style="fill: rgb(5, 19, 103);">
<rect width="100" height="100"/>
</g></g><g transform="translate(1520,1600) scale(0.8,0.8)"><g transform="" style="fill: rgb(5, 19, 103);">
<rect width="100" height="100"/>
</g></g><g transform="translate(1600,1600) scale(0.8,0.8)"><g transform="" style="fill: rgb(5, 19, 103);">
<g>
	<path d="M100,0H0v100h65.625c9.506,0,17.611-3.354,24.316-10.059S100,75.131,100,65.625V0z"/>
</g>
</g></g><g transform="translate(640,1680) scale(0.8,0.8)"><g transform="" style="fill: rgb(5, 19, 103);">
<g>
	<path d="M0,100V0h100v59.375L0,100z"/>
</g>
</g></g><g transform="translate(880,1680) scale(0.8,0.8)"><g transform="" style="fill: rgb(5, 19, 103);">
<g>
	<path d="M100,0v100H0V40.625L100,0z"/>
</g>
</g></g><g transform="translate(1040,1680) scale(0.8,0.8)"><g transform="" style="fill: rgb(5, 19, 103);">
<g>
	<path d="M100,34.375V0H34.375C24.87,0,16.764,3.353,10.059,10.059S0,24.87,0,34.375V100h100V34.375z"/>
</g>
</g></g><g transform="translate(1120,1680) scale(0.8,0.8)"><g transform="" style="fill: rgb(5, 19, 103);">
<g>
	<path d="M100,100H0V0h59.375L100,100z"/>
</g>
</g></g><g transform="translate(1280,1680) scale(0.8,0.8)"><g transform="" style="fill: rgb(5, 19, 103);">
<g>
	<path d="M0,100V0h100v59.375L0,100z"/>
</g>
</g></g><g transform="translate(1440,1680) scale(0.8,0.8)"><g transform="" style="fill: rgb(5, 19, 103);">
<g>
	<path d="M0,100V0h100v59.375L0,100z"/>
</g>
</g></g><g transform="translate(1840,1680) scale(0.8,0.8)"><g transform="" style="fill: rgb(5, 19, 103);">
<g>
	<path d="M100,34.375V0H34.375C24.87,0,16.764,3.353,10.059,10.059S0,24.87,0,34.375V100h100V34.375z"/>
</g>
</g></g><g transform="translate(1920,1680) scale(0.8,0.8)"><g transform="" style="fill: rgb(5, 19, 103);">
<g>
	<path d="M100,34.375c0-9.505-3.354-17.611-10.059-24.316S75.131,0,65.625,0H0v100h100V34.375z"/>
</g>
</g></g><g transform="translate(880,1760) scale(0.8,0.8)"><g transform="" style="fill: rgb(5, 19, 103);">
<rect width="100" height="100"/>
</g></g><g transform="translate(1040,1760) scale(0.8,0.8)"><g transform="" style="fill: rgb(5, 19, 103);">
<g>
	<path d="M0,100V0h100v59.375L0,100z"/>
</g>
</g></g><g transform="translate(1360,1760) scale(0.8,0.8)"><g transform="" style="fill: rgb(5, 19, 103);">
<g>
	<path d="M95,64.062c0,8.556-3.019,15.851-9.053,21.885S72.618,95,64.062,95H35.938c-8.554,0-15.85-3.019-21.884-9.053
		S5,72.618,5,64.062V35.938c0-8.554,3.018-15.85,9.053-21.884S27.383,5,35.938,5h28.125c8.556,0,15.851,3.018,21.885,9.053
		S95,27.383,95,35.938V64.062z"/>
</g>
</g></g><g transform="translate(1600,1760) scale(0.8,0.8)"><g transform="" style="fill: rgb(5, 19, 103);">
<g>
	<path d="M100,34.375V0H34.375C24.87,0,16.764,3.353,10.059,10.059S0,24.87,0,34.375V100h100V34.375z"/>
</g>
</g></g><g transform="translate(1680,1760) scale(0.8,0.8)"><g transform="" style="fill: rgb(5, 19, 103);">
<rect width="100" height="100"/>
</g></g><g transform="translate(1760,1760) scale(0.8,0.8)"><g transform="" style="fill: rgb(5, 19, 103);">
<rect width="100" height="100"/>
</g></g><g transform="translate(1840,1760) scale(0.8,0.8)"><g transform="" style="fill: rgb(5, 19, 103);">
<rect width="100" height="100"/>
</g></g><g transform="translate(1920,1760) scale(0.8,0.8)"><g transform="" style="fill: rgb(5, 19, 103);">
<rect width="100" height="100"/>
</g></g><g transform="translate(720,1840) scale(0.8,0.8)"><g transform="" style="fill: rgb(5, 19, 103);">
<g>
	<path d="M100,34.375V0H34.375C24.87,0,16.764,3.353,10.059,10.059S0,24.87,0,34.375V100h100V34.375z"/>
</g>
</g></g><g transform="translate(800,1840) scale(0.8,0.8)"><g transform="" style="fill: rgb(5, 19, 103);">
<rect width="100" height="100"/>
</g></g><g transform="translate(880,1840) scale(0.8,0.8)"><g transform="" style="fill: rgb(5, 19, 103);">
<rect width="100" height="100"/>
</g></g><g transform="translate(960,1840) scale(0.8,0.8)"><g transform="" style="fill: rgb(5, 19, 103);">
<g>
	<path d="M100,34.375c0-9.505-3.354-17.611-10.059-24.316S75.131,0,65.625,0H0v100h100V34.375z"/>
</g>
</g></g><g transform="translate(1200,1840) scale(0.8,0.8)"><g transform="" style="fill: rgb(5, 19, 103);">
<g>
	<path d="M95,64.062c0,8.556-3.019,15.851-9.053,21.885S72.618,95,64.062,95H35.938c-8.554,0-15.85-3.019-21.884-9.053
		S5,72.618,5,64.062V35.938c0-8.554,3.018-15.85,9.053-21.884S27.383,5,35.938,5h28.125c8.556,0,15.851,3.018,21.885,9.053
		S95,27.383,95,35.938V64.062z"/>
</g>
</g></g><g transform="translate(1520,1840) scale(0.8,0.8)"><g transform="" style="fill: rgb(5, 19, 103);">
<g>
	<path d="M0,0h100v100H40.625L0,0z"/>
</g>
</g></g><g transform="translate(1600,1840) scale(0.8,0.8)"><g transform="" style="fill: rgb(5, 19, 103);">
<g>
	<path d="M100,0H0v100h65.625c9.506,0,17.611-3.354,24.316-10.059S100,75.131,100,65.625V0z"/>
</g>
</g></g><g transform="translate(1760,1840) scale(0.8,0.8)"><g transform="" style="fill: rgb(5, 19, 103);">
<g>
	<path d="M100,0H0v65.625c0,9.506,3.353,17.611,10.059,24.316S24.87,100,34.375,100H100V0z"/>
</g>
</g></g><g transform="translate(1840,1840) scale(0.8,0.8)"><g transform="" style="fill: rgb(5, 19, 103);">
<rect width="100" height="100"/>
</g></g><g transform="translate(1920,1840) scale(0.8,0.8)"><g transform="" style="fill: rgb(5, 19, 103);">
<rect width="100" height="100"/>
</g></g><g transform="translate(640,1920) scale(0.8,0.8)"><g transform="" style="fill: rgb(5, 19, 103);">
<g>
	<path d="M0,0h100v100H40.625L0,0z"/>
</g>
</g></g><g transform="translate(720,1920) scale(0.8,0.8)"><g transform="" style="fill: rgb(5, 19, 103);">
<g>
	<path d="M100,0H0v100h65.625c9.506,0,17.611-3.354,24.316-10.059S100,75.131,100,65.625V0z"/>
</g>
</g></g><g transform="translate(880,1920) scale(0.8,0.8)"><g transform="" style="fill: rgb(5, 19, 103);">
<g>
	<path d="M100,0H0v65.625c0,9.506,3.353,17.611,10.059,24.316S24.87,100,34.375,100H100V0z"/>
</g>
</g></g><g transform="translate(960,1920) scale(0.8,0.8)"><g transform="" style="fill: rgb(5, 19, 103);">
<g>
	<path d="M100,0H0v100h65.625c9.506,0,17.611-3.354,24.316-10.059S100,75.131,100,65.625V0z"/>
</g>
</g></g><g transform="translate(1280,1920) scale(0.8,0.8)"><g transform="" style="fill: rgb(5, 19, 103);">
<g>
	<path d="M0,0h100v100H40.625L0,0z"/>
</g>
</g></g><g transform="translate(1360,1920) scale(0.8,0.8)"><g transform="" style="fill: rgb(5, 19, 103);">
<g>
	<path d="M100,100H0V0h59.375L100,100z"/>
</g>
</g></g><g transform="translate(1680,1920) scale(0.8,0.8)"><g transform="" style="fill: rgb(5, 19, 103);">
<g>
	<path d="M95,64.062c0,8.556-3.019,15.851-9.053,21.885S72.618,95,64.062,95H35.938c-8.554,0-15.85-3.019-21.884-9.053
		S5,72.618,5,64.062V35.938c0-8.554,3.018-15.85,9.053-21.884S27.383,5,35.938,5h28.125c8.556,0,15.851,3.018,21.885,9.053
		S95,27.383,95,35.938V64.062z"/>
</g>
</g></g><g transform="translate(1920,1920) scale(0.8,0.8)"><g transform="" style="fill: rgb(5, 19, 103);">
<g>
	<path d="M0,100V0h100v59.375L0,100z"/>
</g>
</g></g><g transform="translate(0,0) scale(5.6, 5.6)"><g transform=" translate(100, 0) scale(-1,1) " style="fill: rgb(0, 0, 0);">
<g>
	<path style="fill:none;" d="M85,66.221V33.75C85,23.411,76.414,15,65.859,15H34.14C23.586,15,15,23.411,15,33.75v51.246
		l50.855-0.016C76.414,84.98,85,76.564,85,66.221z"/>
	<path d="M100,66.221V33.75C100,15.141,84.68,0,65.859,0H34.14C15.32,0,0,15.141,0,33.75V100l65.859-0.02
		C84.68,99.98,100,84.84,100,66.221z M85,66.221c0,10.344-8.586,18.76-19.145,18.76L15,84.996V33.75C15,23.411,23.586,15,34.14,15
		h31.719C76.414,15,85,23.411,85,33.75V66.221z"/>
</g>
</g></g><g transform="translate(1440,0) scale(5.6, 5.6)"><g transform="" style="fill: rgb(0, 0, 0);">
<g>
	<path style="fill:none;" d="M85,66.221V33.75C85,23.411,76.414,15,65.859,15H34.14C23.586,15,15,23.411,15,33.75v51.246
		l50.855-0.016C76.414,84.98,85,76.564,85,66.221z"/>
	<path d="M100,66.221V33.75C100,15.141,84.68,0,65.859,0H34.14C15.32,0,0,15.141,0,33.75V100l65.859-0.02
		C84.68,99.98,100,84.84,100,66.221z M85,66.221c0,10.344-8.586,18.76-19.145,18.76L15,84.996V33.75C15,23.411,23.586,15,34.14,15
		h31.719C76.414,15,85,23.411,85,33.75V66.221z"/>
</g>
</g></g><g transform="translate(0,1440) scale(5.6, 5.6)"><g transform=" translate(100, 0) scale(-1,1)  translate(0,100) scale(1,-1) " style="fill: rgb(0, 0, 0);">
<g>
	<path style="fill:none;" d="M85,66.221V33.75C85,23.411,76.414,15,65.859,15H34.14C23.586,15,15,23.411,15,33.75v51.246
		l50.855-0.016C76.414,84.98,85,76.564,85,66.221z"/>
	<path d="M100,66.221V33.75C100,15.141,84.68,0,65.859,0H34.14C15.32,0,0,15.141,0,33.75V100l65.859-0.02
		C84.68,99.98,100,84.84,100,66.221z M85,66.221c0,10.344-8.586,18.76-19.145,18.76L15,84.996V33.75C15,23.411,23.586,15,34.14,15
		h31.719C76.414,15,85,23.411,85,33.75V66.221z"/>
</g>
</g></g><g transform="translate(160,160) scale(2.4, 2.4)"><g transform="" style="fill: rgb(0, 0, 0);">
<rect width="100" height="100"/>
</g></g><g transform="translate(1600,160) scale(2.4, 2.4)"><g transform="" style="fill: rgb(0, 0, 0);">
<rect width="100" height="100"/>
</g></g><g transform="translate(160,1600) scale(2.4, 2.4)"><g transform="" style="fill: rgb(0, 0, 0);">
<rect width="100" height="100"/>
</g></g></g></svg>